<?xml version="1.0" encoding="UTF-8" standalone="no"?>
<!-- Created with Inkscape (http://www.inkscape.org/) -->

<svg
   width="800mm"
   height="800mm"
   viewBox="0 0 800 800"
   version="1.1"
   id="svg901"
   sodipodi:docname="logo base.svg"
   inkscape:version="1.2.2 (732a01da63, 2022-12-09)"
   inkscape:export-filename="logo base 128.png"
   inkscape:export-xdpi="4.0640001"
   inkscape:export-ydpi="4.0640001"
   xmlns:inkscape="http://www.inkscape.org/namespaces/inkscape"
   xmlns:sodipodi="http://sodipodi.sourceforge.net/DTD/sodipodi-0.dtd"
   xmlns="http://www.w3.org/2000/svg"
   xmlns:svg="http://www.w3.org/2000/svg">
  <sodipodi:namedview
     id="namedview903"
     pagecolor="#ffffff"
     bordercolor="#000000"
     borderopacity="0.25"
     inkscape:showpageshadow="2"
     inkscape:pageopacity="0.0"
     inkscape:pagecheckerboard="0"
     inkscape:deskcolor="#d1d1d1"
     inkscape:document-units="mm"
     showgrid="false"
     inkscape:zoom="0.2692943"
     inkscape:cx="1342.3975"
     inkscape:cy="1526.2113"
     inkscape:window-width="1920"
     inkscape:window-height="1009"
     inkscape:window-x="-8"
     inkscape:window-y="-8"
     inkscape:window-maximized="1"
     inkscape:current-layer="layer1" />
  <defs
     id="defs898" />
  <g
     inkscape:label="Layer 1"
     inkscape:groupmode="layer"
     id="layer1">
    <circle
       style="fill:#aaeeff;stroke-width:1.5625"
       cx="400"
       cy="400"
       id="circle2"
       r="400" />
    <polygon
       style="fill:#0055d4"
       points="388.694,245.782 190.436,335.379 202.738,118.163 359.526,88.995 "
       id="polygon10"
       transform="matrix(1.6713594,0,0,1.6707052,-26.952919,-24.09905)" />
    <g
       id="g16"
       transform="matrix(1.6713594,0,0,1.6707052,-26.952919,-24.09905)"
       style="fill:#2a7fff;fill-opacity:1">
      <polygon
         style="fill:#2a7fff;fill-opacity:1"
         points="190.436,335.379 359.526,88.995 388.694,245.782 "
         id="polygon12" />
      <polygon
         style="fill:#2a7fff;fill-opacity:1"
         points="190.436,335.379 387.634,246.262 202.731,118.294 "
         id="polygon14" />
    </g>
    <polygon
       style="fill:#003380"
       points="190.436,335.379 387.634,246.262 295.403,182.431 "
       id="polygon18"
       transform="matrix(1.6713594,0,0,1.6707052,-26.952919,-24.09905)" />
    <polygon
       style="fill:#f4a200"
       points="187.044,341.333 151.083,337.067 182.777,305.373 "
       id="polygon20"
       transform="matrix(1.6397154,-0.323691,0.3235643,1.6390735,-141.34256,60.209485)" />
    <polygon
       style="fill:#d88b03"
       points="187.044,341.333 223.004,345.6 191.31,377.294 "
       id="polygon22"
       transform="matrix(1.6397154,-0.323691,0.3235643,1.6390735,-141.34256,60.209485)" />
    <polygon
       style="fill:#fc6f58"
       points="143.705,384.672 107.744,380.406 139.438,348.713 "
       id="polygon24"
       transform="matrix(1.6397154,-0.323691,0.3235643,1.6390735,-141.34256,60.209485)" />
    <polygon
       style="fill:#f1543f"
       points="143.705,384.672 179.664,388.939 147.971,420.633 "
       id="polygon26"
       transform="matrix(1.6397154,-0.323691,0.3235643,1.6390735,-141.34256,60.209485)" />
  </g>
</svg>
