<?xml version="1.0" encoding="UTF-8" standalone="no"?>
<!-- Uploaded to: SVG Repo, www.svgrepo.com, Generator: SVG Repo Mixer Tools -->

<svg
   height="1000"
   width="1000"
   version="1.1"
   id="Layer_1"
   viewBox="0 0 640 640"
   xml:space="preserve"
   sodipodi:docname="ic_app.svg"
   inkscape:version="1.2.2 (732a01da63, 2022-12-09)"
   inkscape:export-filename="new\res\drawable-xxxhdpi\ic_app.png"
   inkscape:export-xdpi="92.351997"
   inkscape:export-ydpi="92.351997"
   xmlns:inkscape="http://www.inkscape.org/namespaces/inkscape"
   xmlns:sodipodi="http://sodipodi.sourceforge.net/DTD/sodipodi-0.dtd"
   xmlns="http://www.w3.org/2000/svg"
   xmlns:svg="http://www.w3.org/2000/svg"><defs
   id="defs23" /><sodipodi:namedview
   id="namedview21"
   pagecolor="#ffffff"
   bordercolor="#000000"
   borderopacity="0.25"
   inkscape:showpageshadow="2"
   inkscape:pageopacity="0.0"
   inkscape:pagecheckerboard="0"
   inkscape:deskcolor="#d1d1d1"
   showgrid="false"
   inkscape:zoom="0.806"
   inkscape:cx="500"
   inkscape:cy="500"
   inkscape:window-width="1920"
   inkscape:window-height="1009"
   inkscape:window-x="-8"
   inkscape:window-y="-8"
   inkscape:window-maximized="1"
   inkscape:current-layer="Layer_1" />
<path
   style="fill:#ffaa00"
   d="M 114.087,575.936 C 86.424,575.936 64,553.511 64,525.849 V 114.087 C 64,86.425 86.424,64 114.087,64 H 525.913 C 553.576,64 576,86.425 576,114.087 v 411.76 c 0,27.662 -22.424,50.087 -50.087,50.087 H 114.087 Z"
   id="path2" />
<path
   style="fill:#f28d00"
   d="M 525.913,64 H 320 V 575.934 H 525.913 C 553.575,575.934 576,553.51 576,525.847 V 114.087 C 576,86.425 553.576,64 525.913,64 Z"
   id="path4" />
<path
   style="fill:#e6f3ff"
   d="m 509.217,147.479 v 345.043 c 0,9.238 -7.456,16.696 -16.696,16.696 H 147.478 c -8.125,0 -14.805,-5.677 -16.362,-13.357 -0.223,-1.113 -0.334,-2.226 -0.334,-3.339 V 147.479 c 0,-9.238 7.456,-16.696 16.696,-16.696 h 345.043 c 9.24,0 16.696,7.457 16.696,16.696 z"
   id="path6" />
<path
   style="fill:#cfdbe6"
   d="m 320,509.218 h 172.522 c 9.239,0 16.696,-7.457 16.696,-16.696 V 147.479 c 0,-9.238 -7.456,-16.696 -16.696,-16.696 H 320 Z"
   id="path8" />
<path
   style="fill:#66b31b"
   d="m 298.408,397.245 -66.783,-66.783 c -6.568,-6.567 -17.03,-6.567 -23.598,0 l -77.244,77.246 v 84.814 c 0,1.113 0.111,2.226 0.334,3.339 1.557,7.68 8.237,13.357 16.362,13.357 h 55.652 c 4.452,0 8.682,-1.781 11.799,-4.897 l 83.478,-83.478 c 6.566,-6.568 6.566,-17.031 0,-23.598 z"
   id="path10" />
<path
   style="fill:#7bd921"
   d="m 415.278,280.265 c -6.568,-6.456 -17.03,-6.456 -23.598,0 L 320,351.945 162.838,509.218 h 329.683 c 9.239,0 16.696,-7.457 16.696,-16.696 V 374.205 Z"
   id="path12" />
<path
   style="fill:#66b31b"
   d="m 509.217,374.205 v 118.316 c 0,9.238 -7.456,16.696 -16.696,16.696 H 320 V 351.945 l 71.679,-71.68 c 6.568,-6.456 17.03,-6.456 23.598,0 z"
   id="path14" />
<path
   style="fill:#ffda44"
   d="m 253.217,269.913 c -27.619,0 -50.087,-22.468 -50.087,-50.087 0,-27.619 22.468,-50.087 50.087,-50.087 27.619,0 50.087,22.468 50.087,50.087 0,27.619 -22.468,50.087 -50.087,50.087 z"
   id="path16" />
<path
   style="fill:#ffaa00"
   d="m 303.304,219.826 c 0,-27.619 -22.468,-50.087 -50.087,-50.087 v 100.174 c 27.619,0 50.087,-22.466 50.087,-50.087 z"
   id="path18" />
</svg>
