<?xml version="1.0" encoding="UTF-8" standalone="no"?>
<!-- Uploaded to: SVG Repo, www.svgrepo.com, Generator: SVG Repo Mixer Tools -->

<svg
   width="800px"
   height="800px"
   viewBox="0 0 24 24"
   fill="none"
   version="1.1"
   id="svg6"
   sodipodi:docname="app_icon.svg"
   inkscape:export-filename="app_icon.png"
   inkscape:export-xdpi="96"
   inkscape:export-ydpi="96"
   inkscape:version="1.2.2 (732a01da63, 2022-12-09)"
   xmlns:inkscape="http://www.inkscape.org/namespaces/inkscape"
   xmlns:sodipodi="http://sodipodi.sourceforge.net/DTD/sodipodi-0.dtd"
   xmlns="http://www.w3.org/2000/svg"
   xmlns:svg="http://www.w3.org/2000/svg">
  <defs
     id="defs10" />
  <sodipodi:namedview
     id="namedview8"
     pagecolor="#ffffff"
     bordercolor="#000000"
     borderopacity="0.25"
     inkscape:showpageshadow="2"
     inkscape:pageopacity="0.0"
     inkscape:pagecheckerboard="0"
     inkscape:deskcolor="#d1d1d1"
     showgrid="false"
     inkscape:zoom="1.06875"
     inkscape:cx="240.93567"
     inkscape:cy="401.40351"
     inkscape:window-width="1920"
     inkscape:window-height="1009"
     inkscape:window-x="-8"
     inkscape:window-y="-8"
     inkscape:window-maximized="1"
     inkscape:current-layer="svg6" />
  <rect
     style="opacity:0.850746;fill:#7c3607;stroke:#dedede;stroke-width:0.03;stroke-opacity:0;fill-opacity:1"
     id="rect219"
     width="12"
     height="24"
     x="12.015"
     y="0.015" />
  <rect
     style="opacity:0.850746;fill:#3e1404;stroke:#ffffff;stroke-width:0.03;stroke-opacity:0;fill-opacity:1"
     id="rect163"
     width="12"
     height="24"
     x="0.015"
     y="0.015" />
  <g
     id="g3870"
     transform="matrix(0.68181818,0,0,0.68381503,3.8181818,3.7942196)">
    <path
       fill-rule="evenodd"
       clip-rule="evenodd"
       d="M 3,4 C 3,2.89543 3.89543,2 5,2 h 12 c 1.1046,0 2,0.89543 2,2 v 1.09005 c 0.3888,0.06131 0.8652,0.16641 1.3511,0.34862 0.5924,0.22214 1.2526,0.57901 1.7713,1.16259 C 22.6595,7.20549 23,8.00415 23,9 c 0,0.99585 -0.3405,1.7945 -0.8776,2.3987 -0.5187,0.5836 -1.1789,0.9405 -1.7713,1.1626 -0.5199,0.195 -1.0289,0.3017 -1.4314,0.3609 l -0.0011,0.0074 c -0.0791,0.5273 -0.2391,1.2473 -0.5692,1.9808 -0.3306,0.7347 -0.8466,1.5149 -1.6526,2.1119 C 15.8791,17.628 14.8231,18 13.5,18 h -5 C 7.17691,18 6.12087,17.628 5.30321,17.0223 4.49723,16.4253 3.9812,15.6451 3.65058,14.9104 3.24764,14.015 3.00268,12.9895 3,12.002 Z m 16,6.8763 V 7.12365 c 0.2094,0.04518 0.4312,0.10606 0.6489,0.18768 0.4076,0.15286 0.7474,0.35849 0.9787,0.61866 C 20.8405,8.16952 21,8.49585 21,9 c 0,0.50415 -0.1595,0.83049 -0.3724,1.07 -0.2313,0.2602 -0.5711,0.4658 -0.9787,0.6187 -0.2177,0.0816 -0.4395,0.1425 -0.6489,0.1876 z m -14,1.121 c 0.00914,0.7099 0.18467,1.4484 0.47442,2.0923 0.23188,0.5153 0.55961,0.9851 1.01924,1.3256 C 6.94163,15.747 7.57309,16 8.5,16 h 5 c 0.9269,0 1.5584,-0.253 2.0063,-0.5848 0.4597,-0.3405 0.7874,-0.8103 1.0193,-1.3256 0.288,-0.64 0.4719,-1.3849 0.4744,-2.0922 V 4 H 5 Z"
       fill="#0F0F0F"
       id="path2"
       style="fill:#ffffff" />
    <path
       d="m 23,21 c 0,-0.5523 -0.4477,-1 -1,-1 H 2 c -0.55228,0 -1,0.4477 -1,1 0,0.5523 0.44772,1 1,1 h 20 c 0.5523,0 1,-0.4477 1,-1 z"
       fill="#0F0F0F"
       id="path4"
       style="fill:#ffffff" />
  </g>
</svg>
